<mxfile host="65bd71144e">
    <diagram id="4Eag5TgmpHmiGcilf_p_" name="Page-1">
        <mxGraphModel dx="2235" dy="745" grid="1" gridSize="10" guides="1" tooltips="1" connect="1" arrows="1" fold="1" page="1" pageScale="1" pageWidth="850" pageHeight="1100" math="0" shadow="0">
            <root>
                <mxCell id="0"/>
                <mxCell id="1" parent="0"/>
                <mxCell id="2" value="Patient" style="swimlane;fontStyle=0;align=center;verticalAlign=top;childLayout=stackLayout;horizontal=1;startSize=55;horizontalStack=0;resizeParent=1;resizeParentMax=0;resizeLast=0;collapsible=0;marginBottom=0;html=1;whiteSpace=wrap;" parent="1" vertex="1">
                    <mxGeometry x="280" y="140" width="180" height="368" as="geometry"/>
                </mxCell>
                <mxCell id="4" value="&lt;div&gt;patient id&lt;/div&gt;&lt;div&gt;date of birth&lt;/div&gt;&lt;div&gt;&lt;span style=&quot;background-color: transparent;&quot;&gt;name&lt;/span&gt;&lt;/div&gt;&lt;div&gt;&lt;font style=&quot;color: light-dark(rgb(0, 0, 0), rgb(255, 255, 255));&quot;&gt;out patient number&lt;/font&gt;&lt;/div&gt;&lt;div&gt;&lt;font style=&quot;color: light-dark(rgb(0, 0, 0), rgb(255, 255, 255));&quot;&gt;health insurance number&lt;/font&gt;&lt;/div&gt;&lt;div&gt;&lt;font style=&quot;color: light-dark(rgb(0, 0, 0), rgb(255, 255, 255));&quot;&gt;national identification number&lt;/font&gt;&lt;/div&gt;&lt;div&gt;address&lt;/div&gt;&lt;div&gt;sex&lt;/div&gt;" style="text;html=1;strokeColor=none;fillColor=none;align=left;verticalAlign=middle;spacingLeft=4;spacingRight=4;overflow=hidden;rotatable=0;points=[[0,0.5],[1,0.5]];portConstraint=eastwest;whiteSpace=wrap;" parent="2" vertex="1">
                    <mxGeometry y="55" width="180" height="285" as="geometry"/>
                </mxCell>
                <mxCell id="7" value="" style="line;strokeWidth=1;fillColor=none;align=left;verticalAlign=middle;spacingTop=-1;spacingLeft=3;spacingRight=3;rotatable=0;labelPosition=right;points=[];portConstraint=eastwest;" parent="2" vertex="1">
                    <mxGeometry y="340" width="180" height="8" as="geometry"/>
                </mxCell>
                <mxCell id="8" value="operations" style="text;html=1;strokeColor=none;fillColor=none;align=center;verticalAlign=middle;spacingLeft=4;spacingRight=4;overflow=hidden;rotatable=0;points=[[0,0.5],[1,0.5]];portConstraint=eastwest;whiteSpace=wrap;" parent="2" vertex="1">
                    <mxGeometry y="348" width="180" height="20" as="geometry"/>
                </mxCell>
                <mxCell id="11" value="&lt;b&gt;&lt;font style=&quot;font-size: 22px;&quot;&gt;Consulting Register Domain Model&lt;/font&gt;&lt;/b&gt;" style="text;html=1;align=center;verticalAlign=middle;resizable=0;points=[];autosize=1;strokeColor=none;fillColor=none;" parent="1" vertex="1">
                    <mxGeometry x="175" y="43" width="390" height="40" as="geometry"/>
                </mxCell>
                <mxCell id="20" value="Clinic" style="swimlane;fontStyle=0;align=center;verticalAlign=top;childLayout=stackLayout;horizontal=1;startSize=55;horizontalStack=0;resizeParent=1;resizeParentMax=0;resizeLast=0;collapsible=0;marginBottom=0;html=1;whiteSpace=wrap;" parent="1" vertex="1">
                    <mxGeometry x="640" y="140" width="140" height="158" as="geometry"/>
                </mxCell>
                <mxCell id="22" value="&lt;div&gt;&lt;font style=&quot;color: light-dark(rgb(0, 0, 0), rgb(255, 255, 255));&quot;&gt;clinic id&lt;/font&gt;&lt;/div&gt;&lt;div&gt;&lt;font style=&quot;color: light-dark(rgb(0, 0, 0), rgb(255, 255, 255));&quot;&gt;facility&lt;/font&gt;&lt;/div&gt;&lt;div&gt;&lt;font style=&quot;color: light-dark(rgb(0, 0, 0), rgb(255, 255, 255));&quot;&gt;CHPS zone&lt;/font&gt;&lt;/div&gt;&lt;div&gt;&lt;font style=&quot;color: light-dark(rgb(0, 0, 0), rgb(255, 255, 255));&quot;&gt;sub district&lt;/font&gt;&lt;/div&gt;&lt;div&gt;&lt;font style=&quot;color: light-dark(rgb(0, 0, 0), rgb(255, 255, 255));&quot;&gt;district&lt;/font&gt;&lt;/div&gt;&lt;div&gt;&lt;br&gt;&lt;/div&gt;" style="text;html=1;strokeColor=none;fillColor=none;align=left;verticalAlign=middle;spacingLeft=4;spacingRight=4;overflow=hidden;rotatable=0;points=[[0,0.5],[1,0.5]];portConstraint=eastwest;whiteSpace=wrap;" parent="20" vertex="1">
                    <mxGeometry y="55" width="140" height="95" as="geometry"/>
                </mxCell>
                <mxCell id="25" value="" style="line;strokeWidth=1;fillColor=none;align=left;verticalAlign=middle;spacingTop=-1;spacingLeft=3;spacingRight=3;rotatable=0;labelPosition=right;points=[];portConstraint=eastwest;" parent="20" vertex="1">
                    <mxGeometry y="150" width="140" height="8" as="geometry"/>
                </mxCell>
                <mxCell id="28" value="&lt;br&gt;&lt;b&gt;Visit&lt;/b&gt;" style="swimlane;fontStyle=0;align=center;verticalAlign=top;childLayout=stackLayout;horizontal=1;startSize=55;horizontalStack=0;resizeParent=1;resizeParentMax=0;resizeLast=0;collapsible=0;marginBottom=0;html=1;whiteSpace=wrap;" parent="1" vertex="1">
                    <mxGeometry x="-280" y="140" width="390" height="648" as="geometry"/>
                </mxCell>
                <mxCell id="29" value="attributes" style="text;html=1;strokeColor=none;fillColor=none;align=center;verticalAlign=middle;spacingLeft=4;spacingRight=4;overflow=hidden;rotatable=0;points=[[0,0.5],[1,0.5]];portConstraint=eastwest;whiteSpace=wrap;" parent="28" vertex="1">
                    <mxGeometry y="55" width="390" height="20" as="geometry"/>
                </mxCell>
                <mxCell id="30" value="patient id&lt;div&gt;clinic id&lt;/div&gt;&lt;div&gt;date&lt;/div&gt;&lt;div&gt;blood pressure&lt;/div&gt;&lt;div&gt;pulse&lt;/div&gt;&lt;div&gt;temperature&lt;/div&gt;&lt;div&gt;weight&lt;/div&gt;&lt;div&gt;respiration&lt;/div&gt;&lt;div&gt;condition history&lt;/div&gt;&lt;div&gt;principal diagnosis&lt;/div&gt;&lt;div&gt;additional diagnosis&lt;/div&gt;&lt;div&gt;treatment given&lt;/div&gt;&lt;div&gt;referred (y/n)&lt;/div&gt;&lt;div&gt;outcome of referral&lt;/div&gt;&lt;div&gt;cost of treatment&lt;/div&gt;&lt;div&gt;remarks&lt;/div&gt;&lt;div&gt;child?&lt;/div&gt;&lt;div&gt;child temp for fever&lt;/div&gt;&lt;div&gt;child respiration for pneumonia&lt;/div&gt;&lt;div&gt;child palmar pallor for anemia&lt;/div&gt;&lt;div&gt;chile pulse rate for stridor, malaria, pneumonia&lt;/div&gt;&lt;div&gt;child blood in stool for dysenterry&lt;/div&gt;&lt;div&gt;child bulging fontanel for infection&lt;/div&gt;&lt;div&gt;child elasticity of skin for dehydration&lt;/div&gt;&lt;div&gt;child skin rashes&lt;/div&gt;&lt;div&gt;child reddening of cord for cord infection&lt;/div&gt;&lt;div&gt;child signs of convulsion or history of convulsion&lt;/div&gt;&lt;div&gt;child lethargy&lt;/div&gt;&lt;div&gt;&lt;br&gt;&lt;/div&gt;&lt;div&gt;&lt;br&gt;&lt;/div&gt;" style="text;html=1;strokeColor=none;fillColor=none;align=left;verticalAlign=middle;spacingLeft=4;spacingRight=4;overflow=hidden;rotatable=0;points=[[0,0.5],[1,0.5]];portConstraint=eastwest;whiteSpace=wrap;" parent="28" vertex="1">
                    <mxGeometry y="75" width="390" height="525" as="geometry"/>
                </mxCell>
                <mxCell id="33" value="" style="line;strokeWidth=1;fillColor=none;align=left;verticalAlign=middle;spacingTop=-1;spacingLeft=3;spacingRight=3;rotatable=0;labelPosition=right;points=[];portConstraint=eastwest;" parent="28" vertex="1">
                    <mxGeometry y="600" width="390" height="8" as="geometry"/>
                </mxCell>
                <mxCell id="34" value="operations" style="text;html=1;strokeColor=none;fillColor=none;align=center;verticalAlign=middle;spacingLeft=4;spacingRight=4;overflow=hidden;rotatable=0;points=[[0,0.5],[1,0.5]];portConstraint=eastwest;whiteSpace=wrap;" parent="28" vertex="1">
                    <mxGeometry y="608" width="390" height="20" as="geometry"/>
                </mxCell>
                <mxCell id="35" value="operation1" style="text;html=1;strokeColor=none;fillColor=none;align=left;verticalAlign=middle;spacingLeft=4;spacingRight=4;overflow=hidden;rotatable=0;points=[[0,0.5],[1,0.5]];portConstraint=eastwest;whiteSpace=wrap;" parent="28" vertex="1">
                    <mxGeometry y="628" width="390" height="20" as="geometry"/>
                </mxCell>
                <mxCell id="36" value="" style="endArrow=none;startArrow=none;endFill=0;startFill=0;endSize=8;html=1;verticalAlign=bottom;labelBackgroundColor=none;strokeWidth=3;exitX=1.005;exitY=0.067;exitDx=0;exitDy=0;exitPerimeter=0;entryX=-0.008;entryY=0.102;entryDx=0;entryDy=0;entryPerimeter=0;" edge="1" parent="1" source="28" target="2">
                    <mxGeometry width="160" relative="1" as="geometry">
                        <mxPoint x="180" y="420" as="sourcePoint"/>
                        <mxPoint x="340" y="420" as="targetPoint"/>
                    </mxGeometry>
                </mxCell>
                <mxCell id="37" value="*" style="text;html=1;align=center;verticalAlign=middle;resizable=0;points=[];autosize=1;strokeColor=none;fillColor=none;" vertex="1" parent="1">
                    <mxGeometry x="110" y="150" width="30" height="30" as="geometry"/>
                </mxCell>
                <mxCell id="38" value="1" style="text;html=1;align=center;verticalAlign=middle;resizable=0;points=[];autosize=1;strokeColor=none;fillColor=none;" vertex="1" parent="1">
                    <mxGeometry x="240" y="140" width="30" height="30" as="geometry"/>
                </mxCell>
                <mxCell id="39" value="*" style="text;html=1;align=center;verticalAlign=middle;resizable=0;points=[];autosize=1;strokeColor=none;fillColor=none;" vertex="1" parent="1">
                    <mxGeometry x="610" y="140" width="30" height="30" as="geometry"/>
                </mxCell>
                <mxCell id="40" value="*" style="text;html=1;align=center;verticalAlign=middle;resizable=0;points=[];autosize=1;strokeColor=none;fillColor=none;" vertex="1" parent="1">
                    <mxGeometry x="460" y="140" width="30" height="30" as="geometry"/>
                </mxCell>
                <mxCell id="41" value="" style="endArrow=none;startArrow=none;endFill=0;startFill=0;endSize=8;html=1;verticalAlign=bottom;labelBackgroundColor=none;strokeWidth=3;exitX=0.996;exitY=0.061;exitDx=0;exitDy=0;exitPerimeter=0;entryX=1.159;entryY=0.814;entryDx=0;entryDy=0;entryPerimeter=0;" edge="1" parent="1" source="2" target="39">
                    <mxGeometry width="160" relative="1" as="geometry">
                        <mxPoint x="460" y="167.5" as="sourcePoint"/>
                        <mxPoint x="627" y="162.5" as="targetPoint"/>
                    </mxGeometry>
                </mxCell>
            </root>
        </mxGraphModel>
    </diagram>
</mxfile>